<?xml version="1.0" encoding="UTF-8" standalone="no"?>
<svg xmlns="http://www.w3.org/2000/svg"
     width="500"
     height="177.07678"
     viewBox="0 0 500 177.07678">

  <!-- Panneau réduit à 80% en X et recentré (de 500 -> 400, décalé de 50 px à gauche) -->
  <g transform="translate(50,0) scale(0.8,1)">
    <!-- Bordure extérieure -->
    <path fill="#ffffff" stroke="#000000" stroke-width="0.85"
          d="m 29.004278,0.4249475 c -15.68095,0 -28.5793305,12.8983705 -28.5793305,28.5793005 V 148.07268 c 0,15.68093 12.8983805,28.57915 28.5793305,28.57915 H 470.99571 c 15.68094,0 28.57934,-12.89822 28.57934,-28.57915 V 29.004248 c 0,-15.68093 -12.8984,-28.5793005 -28.57934,-28.5793005 z"/>
    <!-- Fond rouge -->
    <path fill="#ff0000"
          d="M 29.004318,9.2121175 H 470.99574 c 10.96481,0 19.79211,8.8272705 19.79211,19.7921005 V 148.07259 c 0,10.96479 -8.8273,19.79209 -19.79211,19.79209 H 29.004318 c -10.9648,0 -19.7921005,-8.8273 -19.7921005,-19.79209 V 29.004218 c 0,-10.96483 8.8273005,-19.7921005 19.7921005,-19.7921005 z"/>
    <!-- Cartouche blanc -->
    <path fill="#ffffff"
          d="M 30.997978,29.847458 H 469.00208 V 147.22933 H 30.997978 Z"/>
  </g>

  <!-- "LYON" :
       - Centré horizontalement (x=250) et optiquement (y=86.2)
       - Lettres plus serrées: textLength=270 (espaces répartis uniquement entre lettres)
  -->
  <text x="250"
        y="86.2"
        text-anchor="middle"
        dominant-baseline="middle"
        font-family="Caracteres L1, Caractères L1, 'Caracteres L1', Arial, sans-serif"
        font-size="88"
        fill="#000000"
        lengthAdjust="spacing"
        textLength="215">LYON</text>
</svg>
