<?xml version="1.0" encoding="UTF-8" standalone="no"?>
<!-- Generator: Adobe Illustrator 16.0.2, SVG Export Plug-In . SVG Version: 6.00 Build 0)  -->

<svg
   version="1.1"
   id="Ebene_1"
   sodipodi:docname="France_road_sign_C3.svg"
   inkscape:version="1.1.2 (b8e25be833, 2022-02-05)"
   x="0px"
   y="0px"
   width="500"
   height="177.07678"
   viewBox="0 0 500 177.07678"
   xml:space="preserve"
   xmlns:inkscape="http://www.inkscape.org/namespaces/inkscape"
   xmlns:sodipodi="http://sodipodi.sourceforge.net/DTD/sodipodi-0.dtd"
   xmlns="http://www.w3.org/2000/svg"
   xmlns:svg="http://www.w3.org/2000/svg"><defs
   id="defs56" /><sodipodi:namedview
   id="namedview54"
   pagecolor="#ffffff"
   bordercolor="#666666"
   borderopacity="1.0"
   inkscape:pageshadow="2"
   inkscape:pageopacity="0.0"
   inkscape:pagecheckerboard="0"
   showgrid="false"
   inkscape:zoom="1.0530514"
   inkscape:cx="398.36612"
   inkscape:cy="42.258146"
   inkscape:window-width="1366"
   inkscape:window-height="706"
   inkscape:window-x="-8"
   inkscape:window-y="-8"
   inkscape:window-maximized="1"
   inkscape:current-layer="Ebene_1" />



















<path
   style="color:#000000;opacity:1;fill:#ffffff;fill-opacity:1;stroke:#000000;stroke-width:0.849895;stroke-miterlimit:4;stroke-dasharray:none;stroke-opacity:1;paint-order:markers fill stroke"
   d="m 29.004278,0.4249475 c -15.68095,0 -28.5793305,12.8983705 -28.5793305,28.5793005 V 148.07268 c 0,15.68093 12.8983805,28.57915 28.5793305,28.57915 H 470.99571 c 15.68094,0 28.57934,-12.89822 28.57934,-28.57915 V 29.004248 c 0,-15.68093 -12.8984,-28.5793005 -28.57934,-28.5793005 z"
   id="path1217"
   sodipodi:nodetypes="sssssssss" /><path
   style="color:#000000;opacity:1;fill:#ff0000;fill-opacity:1;stroke-width:17.5745;-inkscape-stroke:none;paint-order:markers fill stroke"
   d="M 29.004318,9.2121175 H 470.99574 c 10.96481,0 19.79211,8.8272705 19.79211,19.7921005 V 148.07259 c 0,10.96479 -8.8273,19.79209 -19.79211,19.79209 H 29.004318 c -10.9648,0 -19.7921005,-8.8273 -19.7921005,-19.79209 V 29.004218 c 0,-10.96483 8.8273005,-19.7921005 19.7921005,-19.7921005 z"
   id="path1215" /><path
   id="rect2729"
   style="opacity:1;fill:#ffffff;stroke-width:17.5745;paint-order:markers fill stroke"
   d="M 30.997978,29.847458 H 469.00208 V 147.22933 H 30.997978 Z" /><path
   d="m 109.35626,56.692317 q 6.19289,0.731105 10.49351,4.945713 4.34363,4.214607 6.27891,9.977438 0.90313,2.537366 1.33319,6.665961 v 19.35279 q -0.6451,9.805411 -6.1929,15.826281 -5.50479,6.02087 -13.41793,6.40792 H 82.907444 L 82.95045,56.692317 Z M 95.250224,107.43963 h 10.063446 q 3.05344,-0.47307 5.20375,-2.23632 2.15031,-1.80626 3.65553,-6.278905 0.81712,-2.752397 0.47307,-20.040889 -2.02129,-8.94529 -9.33235,-10.278482 H 95.250224 Z"
   style="font-size:88.0767px;line-height:1.25;font-family:'Caracteres L1';-inkscape-font-specification:'Caracteres L1';text-align:center;letter-spacing:23.2301px;word-spacing:0px;text-anchor:middle;stroke-width:2.20192"
   id="path10" /><path
   d="m 176.53869,56.692317 q 9.93443,0 15.52524,7.139029 4.90271,6.278905 4.90271,14.14904 0,1.419204 -0.17203,3.354483 -1.03215,9.590383 -9.59038,15.869288 l 10.49351,22.707273 h -13.58996 l -8.98829,-18.79371 h -7.78413 v 18.92273 h -11.91271 l 0.043,-63.348133 z m -1.72025,32.297656 3.52651,-0.430062 q 3.01044,-0.817118 5.03173,-3.39749 1.72025,-2.537366 2.0643,-6.063874 0.17202,-4.386633 -2.58038,-7.655104 -2.32233,-2.666384 -6.75197,-3.010434 h -8.64425 v 20.556964 z"
   style="font-size:88.0767px;line-height:1.25;font-family:'Caracteres L1';-inkscape-font-specification:'Caracteres L1';text-align:center;letter-spacing:23.2301px;word-spacing:0px;text-anchor:middle;stroke-width:2.20192"
   id="path12" /><path
   d="M 262.9449,56.950354 V 68.476015 H 236.88314 V 82.238 h 19.09476 v 11.65468 h -19.09476 v 14.40708 h 27.17992 v 11.65468 H 224.7554 l 0.043,-63.004086 z"
   style="font-size:88.0767px;line-height:1.25;font-family:'Caracteres L1';-inkscape-font-specification:'Caracteres L1';text-align:center;letter-spacing:23.2301px;word-spacing:0px;text-anchor:middle;stroke-width:2.20192"
   id="path14" /><path
   d="m 305.52779,56.99336 v 42.662151 q 0.81712,8.171179 9.20333,9.117319 8.25719,-0.90314 9.28934,-8.988301 V 56.99336 h 12.17075 v 45.97363 q -1.59123,8.42921 -7.95614,13.11689 -5.67682,3.99958 -11.61168,4.21461 -0.94613,0.086 -1.84926,0.086 -8.81627,0 -14.57911,-5.11774 -6.57994,-6.36492 -6.967,-12.98787 V 56.99336 Z"
   style="font-size:88.0767px;line-height:1.25;font-family:'Caracteres L1';-inkscape-font-specification:'Caracteres L1';text-align:center;letter-spacing:23.2301px;word-spacing:0px;text-anchor:middle;stroke-width:2.20192"
   id="path16" /><path
   d="m 379.72023,56.864341 11.65468,19.438803 11.65468,-19.35279 h 13.891 l -19.30978,31.222501 19.48181,31.695565 h -13.848 l -12.04173,-19.22377 -11.39665,19.18077 -15.2672,0.043 19.4388,-31.738571 -19.39579,-31.265508 z"
   style="font-size:88.0767px;line-height:1.25;font-family:'Caracteres L1';-inkscape-font-specification:'Caracteres L1';text-align:center;letter-spacing:23.2301px;word-spacing:0px;text-anchor:middle;stroke-width:2.20192"
   id="path18" /></svg>
