<svg xmlns="http://www.w3.org/2000/svg" viewBox="39.333 0 28 28" data-ligne-id="F2"><g><path fill="#8CC055" d="M39.333 0h28v28h-28z"/><path fill="#FFFFFF" d="M47.23 23.52L59.26 23.52L59.26 20.76L50.87 20.76C50.92 19.98 51.07 19.34 52.57 18.21L55.30 16.16C57.71 14.34 58.97 12.89 58.97 9.82C58.97 6.37 56.36 4.48 52.62 4.48C50.95 4.48 48.78 5.07 47.06 6.10L48.14 8.44C49.05 7.95 50.80 7.26 52.37 7.26C54.05 7.26 55.52 7.97 55.52 10.26C55.52 11.91 54.59 12.92 52.96 14.12L50.70 15.82C48.26 17.67 47.23 19.19 47.23 21.11Z"/></g>
  <line
    x1="67.333" y1="0"
    x2="39.333" y2="28"
    stroke="#FFFFFF"
    stroke-opacity="0.91"
    stroke-width="3"
    stroke-linecap="square"
  />



 <!-- Voile blanc/gris semi-transparent -->
  <rect x="39.333" y="0" width="28" height="28" fill="#E6E6E6" opacity="0.7"/>
</svg>
