<svg xmlns="http://www.w3.org/2000/svg" viewBox="0 0 35 28" style="display: block;"><g><path d="M35,0H3.6S0,5.4,0,14s3.6,14,3.6,14h31.4" fill="rgb(226,0,26)"/><path d="M19.155,12.499h3.978c2.39,0,3.207,1.225,3.207,2.697,0,1.312-.743,2.041-1.486,2.317,1.02.205,2.011,1.05,2.011,2.711,0,2.085-1.618,3.426-3.848,3.426h-3.862v-11.15h0ZM22.564,17.192c1.078,0,1.982-.467,1.982-1.618,0-.86-.554-1.545-1.851-1.545h-1.633v3.163h1.502ZM22.827,22.132c.992,0,2.084-.466,2.084-1.822,0-1.166-.583-1.735-1.763-1.735h-2.085v3.556h1.764Z" fill="#fff"/><polygon points="12.932 7.788 8.018 7.788 8.018 5.039 21.033 5.039 21.033 7.788 16.119 7.788 16.119 23.649 12.932 23.649 12.932 7.788" fill="#fff"/></g></svg>