<?xml version="1.0" encoding="UTF-8"?>
<svg id="Logo_couleur" width="800" height="279.76" version="1.1" viewBox="0 0 800 279.76" xmlns="http://www.w3.org/2000/svg">
 <defs>
  <style>.cls-1{fill:#fff;}.cls-2{fill:#e4002b;}</style>
 </defs>
 <g>
  <rect class="cls-2" x="-4.5971e-7" y="4.3884e-7" width="541.41" height="144.12"/>
  <rect class="cls-2" x="532.93" y="135.64" width="267.07" height="144.12"/>
 </g>
 <g id="GRAND" transform="matrix(.99691 0 0 .99691 -28.262 -32.499)" stroke-width="1.0031">
  <g stroke-width="1.0031">
   <path class="cls-2" d="m315.39 240.19c0.31 0 0.57 0.25 0.57 0.57v3.86c0 18.14-8.28 25.92-21.25 25.92s-21.58-7.78-21.58-25.92v-6.94c0-18.56 8.7-26.33 21.58-26.33 11.49 0 18.88 6.28 20.89 17.98 0.06 0.35-0.21 0.67-0.56 0.67h-8.25c-0.26 0-0.49-0.19-0.55-0.44-1.49-6.4-5.15-9.76-11.53-9.76-7.7 0-11.88 5.02-11.88 17.47v7.36c0 12.46 4.18 17.47 11.88 17.47s11-4.3 11.7-13.3c0-0.08-0.06-0.16-0.14-0.16h-10.74c-0.31 0-0.57-0.25-0.57-0.57v-7.31c0-0.31 0.25-0.57 0.57-0.57z"/>
   <path class="cls-2" d="m355.99 269.38-10.9-22.94s-0.07-0.08-0.13-0.08h-10.95c-0.08 0-0.14 0.06-0.14 0.14v22.63c0 0.31-0.25 0.57-0.57 0.57h-8.54c-0.31 0-0.57-0.25-0.57-0.57v-56.39c0-0.31 0.25-0.57 0.57-0.57h19.04c13.26 0 21.19 5.75 21.19 17.17 0 7.86-3.7 12.93-10.28 15.37-0.08 0.03-0.12 0.12-0.08 0.19l11.79 23.97c0.19 0.38-0.09 0.82-0.51 0.82h-9.41c-0.22 0-0.42-0.13-0.51-0.32zm-12.86-31.36c8.18 0 12.18-2.17 12.18-8.67s-4-8.75-12.18-8.75h-9.12c-0.08 0-0.14 0.06-0.14 0.14v17.14c0 0.08 0.06 0.14 0.14 0.14z"/>
   <path class="cls-2" d="m373.6 268.95 19.63-56.39c0.08-0.23 0.29-0.38 0.54-0.38h8.37c0.24 0 0.46 0.15 0.54 0.38l19.63 56.39c0.13 0.37-0.15 0.75-0.54 0.75h-9.05c-0.24 0-0.46-0.16-0.54-0.39l-3.76-11.43c-0.02-0.06-0.07-0.1-0.13-0.1h-20.57c-0.06 0-0.12 0.04-0.13 0.1l-3.76 11.43c-0.08 0.23-0.29 0.39-0.54 0.39h-9.14c-0.39 0-0.66-0.38-0.54-0.75zm16.87-19.5h14.96c0.1 0 0.16-0.09 0.13-0.19l-7.48-22.67c-0.04-0.13-0.23-0.13-0.27 0l-7.48 22.67c-0.03 0.09 0.04 0.19 0.13 0.19z"/>
   <path class="cls-2" d="m470.92 212.75v56.39c0 0.31-0.25 0.57-0.57 0.57h-7.7c-0.2 0-0.38-0.1-0.49-0.28l-23.01-38.38c-0.07-0.12-0.26-0.07-0.26 0.07v38.02c0 0.31-0.25 0.57-0.57 0.57h-8.21c-0.31 0-0.57-0.25-0.57-0.57v-56.39c0-0.31 0.25-0.57 0.57-0.57h7.45c0.2 0 0.38 0.1 0.49 0.28l23.26 38.88c0.07 0.12 0.26 0.07 0.26-0.07v-38.52c0-0.31 0.25-0.57 0.57-0.57h8.21c0.31 0 0.57 0.25 0.57 0.57z"/>
   <path class="cls-2" d="m479.37 269.14v-56.39c0-0.31 0.25-0.57 0.57-0.57h18.87c12.93 0 21.6 6.92 21.6 25.34v6.84c0 18.42-8.68 25.34-21.6 25.34h-18.87c-0.31 0-0.57-0.25-0.57-0.57zm31.36-24.78v-6.84c0-11.84-3.67-16.92-11.93-16.92h-9.62c-0.08 0-0.14 0.06-0.14 0.14v40.48c0 0.08 0.06 0.14 0.14 0.14h9.62c8.26 0 11.93-5.17 11.93-17.01z"/>
  </g>
 </g>
 <g>
  <path class="cls-1" d="m71.847 72.236 15.173-28.551c0.09969-0.18941 0.2891-0.29907 0.49846-0.29907h11.973c0.30904 0 0.56824 0.24923 0.56824 0.56824v56.216c0 0.30904-0.24923 0.56824-0.56824 0.56824h-11.833c-0.30904 0-0.56824-0.24923-0.56824-0.56824v-31.263c0-0.14954-0.19938-0.19938-0.26917-0.05982l-11.375 22.111c-0.09969 0.18941-0.2891 0.30904-0.49846 0.30904h-6.7092c-0.20935 0-0.40873-0.11963-0.50842-0.30904l-11.126-21.852c-0.06978-0.1296-0.26916-0.07975-0.26916 0.05982v31.014c0 0.30904-0.24923 0.56824-0.56824 0.56824h-11.833c-0.30904 0-0.56824-0.24923-0.56824-0.56824v-56.216c0-0.30904 0.24923-0.56824 0.56824-0.56824h11.893c0.20935 0 0.39876 0.11963 0.49846 0.29907l15.253 28.551c0.04985 0.09969 0.19938 0.09969 0.24923 0z"/>
  <path class="cls-1" d="m122.6 55v10.188c0 0.07975 0.0598 0.13957 0.13957 0.13957h19.24c0.30905 0 0.55827 0.24923 0.55827 0.55827v10.348c0 0.30904-0.25919 0.56824-0.56823 0.56824h-19.23c-0.0797 0-0.13957 0.05981-0.13957 0.13957v12.182c0 0.07975 0.0598 0.13957 0.13957 0.13957h21.733c0.30904 0 0.55827 0.24923 0.55827 0.55827v10.348c0 0.30904-0.2592 0.56824-0.56824 0.56824h-35.101c-0.30904 0-0.55827-0.24923-0.55827-0.55827v-56.226c0-0.30904 0.2592-0.56824 0.56824-0.56824h7.437c0.0498 0 0.0997-0.02991 0.11963-0.06978l5.3833-9.0619c0.10966-0.15951 0.2891-0.2592 0.48848-0.2592h13.977c0.47851 0 0.73771 0.5483 0.44861 0.91716l-6.0114 8.2444c-0.0698 0.08972 0 0.22929 0.10966 0.22929h13.139c0.30904 0 0.55827 0.24923 0.55827 0.55827v10.348c0 0.30904-0.2592 0.56824-0.56824 0.56824h-21.723c-0.0798 0-0.13957 0.05982-0.13957 0.13957z"/>
  <path class="cls-1" d="m197.46 43.954v10.338c0 0.30904-0.24922 0.56824-0.56823 0.56824h-14.256c-0.0797 0-0.13957 0.05982-0.13957 0.13957v45.17c0 0.30904-0.24923 0.56824-0.56824 0.56824h-12.661c-0.30904 0-0.56824-0.24923-0.56824-0.56824v-45.17c0-0.07975-0.0598-0.13957-0.13957-0.13957h-14.256c-0.30904 0-0.56824-0.24923-0.56824-0.56824v-10.338c0-0.30904 0.24923-0.56824 0.56824-0.56824h42.588c0.30904 0 0.56823 0.24923 0.56823 0.56824z"/>
  <path class="cls-1" d="m236.58 100.39-9.371-21.274c-0.0199-0.04985-0.0698-0.07975-0.1296-0.07975h-6.9186c-0.0798 0-0.13957 0.05982-0.13957 0.13957v20.985c0 0.30904-0.24923 0.56824-0.56824 0.56824h-12.661c-0.30904 0-0.56824-0.24923-0.56824-0.56824v-56.216c0-0.30904 0.24923-0.56824 0.56824-0.56824h21.045c13.219 0 21.693 6.0712 21.693 18.034 0 7.427-3.2798 12.471-9.0121 15.153-0.0698 0.02991-0.0997 0.11963-0.0698 0.18941l11.026 23.168c0.17944 0.37883-0.0997 0.8075-0.50843 0.8075h-13.867c-0.21932 0-0.42867-0.1296-0.51839-0.33895zm-10.408-32.818c5.5727 0 9.5604-0.74768 9.5604-6.1509s-3.9876-6.5696-9.5604-6.5696h-6.0114c-0.0798 0-0.13957 0.05982-0.13957 0.13957v12.431c0 0.07975 0.0598 0.13957 0.13957 0.13957h6.0114z"/>
  <path class="cls-1" d="m280.41 101.57c-13.05 0-22.61-7.8955-22.61-25.012v-8.9722c0-17.286 9.5604-25.012 22.61-25.012s22.61 7.726 22.61 25.012v8.9722c0 17.117-9.5604 25.012-22.61 25.012zm-8.8127-25.012c0 9.3909 3.0705 13.548 8.8127 13.548s8.8127-4.1571 8.8127-13.548v-8.9722c0-9.3909-3.0705-13.548-8.8127-13.548s-8.8127 4.1571-8.8127 13.548z"/>
  <path class="cls-1" d="m325.33 81.507v18.662c0 0.30904-0.24923 0.56824-0.56824 0.56824h-12.661c-0.30904 0-0.56824-0.24923-0.56824-0.56824v-56.216c0-0.30904 0.24923-0.56824 0.56824-0.56824h21.045c13.219 0 21.693 5.822 21.693 18.612s-8.394 19.36-21.693 19.36h-7.6662c-0.0798 0-0.13956 0.05982-0.13956 0.13957zm5.3235-11.614c7.2276 0 10.388-2.1633 10.388-7.8955 0-4.6556-3.1602-7.1478-10.388-7.1478h-5.174c-0.0798 0-0.13956 0.05982-0.13956 0.13957v14.764c0 0.07975 0.0598 0.13957 0.13956 0.13957z"/>
  <path class="cls-1" d="m385.47 101.57c-13.05 0-22.61-7.8955-22.61-25.012v-8.9722c0-17.286 9.5604-25.012 22.61-25.012 13.05 0 22.61 7.726 22.61 25.012v8.9722c0 17.117-9.5604 25.012-22.61 25.012zm-8.8127-25.012c0 9.3909 3.0705 13.548 8.8127 13.548 5.7422 0 8.8127-4.1571 8.8127-13.548v-8.9722c0-9.3909-3.0705-13.548-8.8127-13.548-5.7422 0-8.8127 4.1571-8.8127 13.548z"/>
  <path class="cls-1" d="m430.69 89.263h21.733c0.30904 0 0.56824 0.24923 0.56824 0.56824v10.338c0 0.30904-0.24923 0.56824-0.56824 0.56824h-35.101c-0.30905 0-0.56824-0.24923-0.56824-0.56824v-56.216c0-0.30904 0.24922-0.56824 0.56824-0.56824h12.661c0.30904 0 0.56824 0.24923 0.56824 0.56824v45.17c0 0.07975 0.0598 0.13957 0.13956 0.13957z"/>
  <path class="cls-1" d="m498.02 43.954v10.338c0 0.30904-0.24923 0.56824-0.56824 0.56824h-21.733c-0.0797 0-0.13957 0.05982-0.13957 0.13957v10.188c0 0.07975 0.0598 0.13957 0.13957 0.13957h19.24c0.30904 0 0.56823 0.24923 0.56823 0.56824v10.338c0 0.30904-0.24922 0.56824-0.56823 0.56824h-19.24c-0.0797 0-0.13957 0.05981-0.13957 0.13957v12.182c0 0.07975 0.0598 0.13957 0.13957 0.13957h21.733c0.30904 0 0.56824 0.24923 0.56824 0.56824v10.338c0 0.30904-0.24923 0.56824-0.56824 0.56824h-35.101c-0.30904 0-0.56824-0.24923-0.56824-0.56824v-56.216c0-0.30904 0.24923-0.56824 0.56824-0.56824h35.101c0.30904 0 0.56824 0.24923 0.56824 0.56824z"/>
 </g>
 <g>
  <path class="cls-1" d="m590.26 224.9h21.733c0.30905 0 0.56824 0.24923 0.56824 0.56824v10.338c0 0.30904-0.24923 0.56824-0.56824 0.56824h-35.101c-0.30905 0-0.56824-0.24923-0.56824-0.56824v-56.216c0-0.30905 0.24923-0.56824 0.56824-0.56824h12.661c0.30904 0 0.56824 0.24923 0.56824 0.56824v45.17c0 0.0797 0.0598 0.13957 0.13956 0.13957z"/>
  <path class="cls-1" d="m621.93 179.36 8.6133 19.081c0.0499 0.10966 0.20935 0.10966 0.2592 0l8.6133-19.081c0.0897-0.19938 0.2891-0.32898 0.51839-0.32898h14.575c0.42867 0 0.69783 0.44861 0.49845 0.82743l-17.426 33.546s-0.0199 0.0399-0.0199 0.0698v22.341c0 0.30904-0.24922 0.56824-0.56823 0.56824h-12.671c-0.30905 0-0.56824-0.24923-0.56824-0.56824v-22.341s0-0.0498-0.0199-0.0698l-17.426-33.546c-0.19938-0.37882 0.0798-0.82743 0.49845-0.82743h14.575c0.21932 0 0.42867 0.1296 0.51839 0.32898z"/>
  <path class="cls-1" d="m680.28 237.2c-13.05 0-22.61-7.8955-22.61-25.012v-8.9722c0-17.286 9.5604-25.012 22.61-25.012s22.61 7.726 22.61 25.012v8.9722c0 17.117-9.5604 25.012-22.61 25.012zm-8.8127-25.012c0 9.3909 3.0705 13.548 8.8127 13.548s8.8127-4.1571 8.8127-13.548v-8.9722c0-9.3909-3.0705-13.548-8.8127-13.548s-8.8127 4.1571-8.8127 13.548z"/>
  <path class="cls-1" d="m756.61 179.59v56.216c0 0.30904-0.24923 0.56824-0.56824 0.56824h-10.268c-0.18941 0-0.36885-0.0897-0.46855-0.24923l-20.686-31.104c-0.0797-0.11963-0.2592-0.0598-0.2592 0.0798v30.715c0 0.30904-0.24922 0.56824-0.56823 0.56824h-11.833c-0.30904 0-0.56824-0.24923-0.56824-0.56824v-56.216c0-0.30905 0.24923-0.56824 0.56824-0.56824h10.099c0.18942 0 0.36886 0.0997 0.46855 0.24922l20.845 31.522c0.0797 0.11963 0.2592 0.0598 0.2592-0.0798v-31.133c0-0.30905 0.24922-0.56824 0.56823-0.56824h11.833c0.30904 0 0.56824 0.24923 0.56824 0.56824z"/>
 </g>
</svg>
