<svg xmlns="http://www.w3.org/2000/svg" viewBox="39.333 0 28 28" data-ligne-id="MB"><g><path fill="#0075BC" d="M39.333 0h28v28h-28z"/><path fill="#FFFFFF" d="M46.58 23.52L53.17 23.52C56.98 23.52 59.74 21.23 59.74 17.67C59.74 14.83 58.05 13.39 56.31 13.04C57.58 12.57 58.85 11.32 58.85 9.08C58.85 6.57 57.45 4.48 53.37 4.48L46.58 4.48ZM49.84 12.49L49.84 7.09L52.62 7.09C54.84 7.09 55.79 8.26 55.79 9.73C55.79 11.70 54.24 12.49 52.40 12.49ZM49.84 20.93L49.84 14.86L53.40 14.86C55.41 14.86 56.41 15.83 56.41 17.82C56.41 20.14 54.54 20.93 52.85 20.93Z"/></g></svg>