<svg xmlns="http://www.w3.org/2000/svg" viewBox="39.333 0 28 28" data-ligne-id="MC"><g><path fill="#EF9D1E" d="M39.333 0h28v28h-28z"/><path fill="#FFFFFF" d="M46.01 14.63C46.01 21.32 50.25 23.88 54.51 23.88C56.76 23.88 58.87 23.28 60.31 22.37L59.47 20.45C58.27 20.84 57.31 21.13 55.49 21.13C52.41 21.13 49.36 19.52 49.36 14.44C49.36 9.94 51.97 7.62 55.40 7.62C57.08 7.62 58.30 8.05 59.28 8.43L60.19 5.58C59.04 5.22 57.82 4.84 55.69 4.84C49.58 4.84 46.01 8.77 46.01 14.63Z"/></g>
 <line
    x1="67.333" y1="0"
    x2="39.333" y2="28"
    stroke="#FFFFFF"
    stroke-opacity="0.91"
    stroke-width="3"
    stroke-linecap="square"
  />



 <!-- Voile blanc/gris semi-transparent -->
  <rect x="39.333" y="0" width="28" height="28" fill="#E6E6E6" opacity="0.7"/></svg>
