<?xml version="1.0" encoding="UTF-8" standalone="no"?>
<!-- Created with Inkscape (http://www.inkscape.org/) -->

<svg
   width="100"
   height="100"
   id="svg2"
   version="1.1"
   inkscape:version="1.2 (dc2aeda, 2022-05-15)"
   sodipodi:docname="Lyon_tcl_tram-2.svg"
   xmlns:inkscape="http://www.inkscape.org/namespaces/inkscape"
   xmlns:sodipodi="http://sodipodi.sourceforge.net/DTD/sodipodi-0.dtd"
   xmlns="http://www.w3.org/2000/svg"
   xmlns:svg="http://www.w3.org/2000/svg"
   xmlns:rdf="http://www.w3.org/1999/02/22-rdf-syntax-ns#"
   xmlns:cc="http://creativecommons.org/ns#"
   xmlns:dc="http://purl.org/dc/elements/1.1/">
  <defs
     id="defs4" />
  <sodipodi:namedview
     id="base"
     pagecolor="#ffffff"
     bordercolor="#666666"
     borderopacity="1.0"
     inkscape:pageopacity="0.0"
     inkscape:pageshadow="2"
     inkscape:zoom="5.6568542"
     inkscape:cx="29.079767"
     inkscape:cy="11.578874"
     inkscape:document-units="px"
     inkscape:current-layer="layer1"
     showgrid="false"
     fit-margin-top="0"
     fit-margin-left="0"
     fit-margin-right="0"
     fit-margin-bottom="0"
     inkscape:window-width="1463"
     inkscape:window-height="917"
     inkscape:window-x="0"
     inkscape:window-y="25"
     inkscape:window-maximized="0"
     inkscape:showpageshadow="2"
     inkscape:pagecheckerboard="0"
     inkscape:deskcolor="#d1d1d1" />
  <metadata
     id="metadata7">
    <rdf:RDF>
      <cc:Work
         rdf:about="">
        <dc:format>image/svg+xml</dc:format>
        <dc:type
           rdf:resource="http://purl.org/dc/dcmitype/StillImage" />
        <dc:title />
      </cc:Work>
    </rdf:RDF>
  </metadata>
  <g
     inkscape:groupmode="layer"
     id="layer1"
     inkscape:label="Calque">
    <flowRoot
       xml:space="preserve"
       id="flowRoot2988"
       style="font-style:normal;font-weight:normal;font-size:16.6667px;line-height:0.01%;font-family:sans-serif;letter-spacing:0px;word-spacing:0px;fill:#000000;fill-opacity:1;stroke:none;stroke-width:1px;stroke-linecap:butt;stroke-linejoin:miter;stroke-opacity:1"><flowRegion
         id="flowRegion2990"
         style="font-family:sans-serif;stroke-width:1px"><rect
           id="rect2992"
           width="83.333336"
           height="63.888889"
           x="12.5"
           y="12.5"
           style="font-family:sans-serif;stroke-width:1px" /></flowRegion><flowPara
         id="flowPara2994"
         style="font-size:55.5556px;line-height:1.25;font-family:sans-serif;stroke-width:1px"> </flowPara></flowRoot>
    <rect
       style="fill:#6aa745;fill-opacity:1;stroke:none;stroke-width:1"
       id="rect3764"
       width="100"
       height="100"
       x="0"
       y="-1.3882908e-14" />
    <path
       d="m 25.847033,78.778562 0.290764,9.722815 H 73.680794 V 77.612536 h -33.15311 c 0.130527,-1.038434 0.22745,-1.784136 0.290765,-2.237109 0.130528,-0.777336 0.422282,-1.555675 0.875261,-2.335018 0.520192,-0.842608 1.200619,-1.685232 2.041286,-2.527872 0.907876,-0.842605 2.074889,-1.814787 3.501045,-2.916549 l 10.79093,-8.067237 c 2.268718,-1.750492 4.343629,-3.501011 6.224739,-5.251567 1.813774,-1.619939 3.368474,-3.434743 4.664103,-5.444419 1.166967,-1.813778 2.074864,-3.920336 2.723694,-6.319682 0.648731,-2.203435 0.973121,-4.892511 0.973171,-8.067238 -5e-5,-3.500987 -0.616193,-6.515443 -1.848432,-9.043375 -1.295632,-2.656378 -3.045164,-4.892494 -5.2486,-6.708358 -2.268797,-1.87902 -4.926225,-3.239877 -7.972293,-4.082574 -3.111412,-0.907823 -6.481907,-1.361771 -10.111492,-1.361847 -3.176675,7.6e-5 -6.806286,0.550946 -10.88884,1.652612 -4.019289,1.101814 -7.714174,2.657502 -11.084664,4.66707 l 4.278396,9.23623 c 0.907889,-0.518173 1.976993,-1.004759 3.207312,-1.459758 1.038434,-0.452897 2.40028,-0.971131 4.085541,-1.5547 1.424137,-0.452897 2.947189,-0.841572 4.56916,-1.166026 1.813797,-0.324327 3.401133,-0.486521 4.762013,-0.486586 1.619949,6.5e-5 3.175638,0.194897 4.667071,0.584497 1.556649,0.387748 2.885857,1.03554 3.98763,1.943376 1.101708,0.842685 2.008615,2.073984 2.720727,3.693899 0.714018,1.556735 1.071046,3.404176 1.071082,5.54233 -3.6e-5,1.6853 -0.227011,3.176209 -0.680923,4.472734 -0.453985,1.296619 -1.134907,2.592697 -2.042771,3.888236 -0.842657,1.167057 -1.91176,2.334071 -3.207313,3.501044 -1.491434,1.295623 -2.950201,2.43 -4.376305,3.403134 l -8.945466,6.708357 c -4.731366,3.564366 -8.230429,7.031782 -10.497198,10.402255 -2.140192,3.239967 -3.210284,6.740018 -3.21028,10.500167 z"
       id="path3213"
       style="font-style:normal;font-variant:normal;font-weight:bold;font-stretch:normal;font-size:70px;line-height:125%;font-family:Confluence;-inkscape-font-specification:'Confluence Bold';text-align:center;letter-spacing:0px;word-spacing:0px;text-anchor:middle;fill:#ffffff;fill-opacity:1;stroke:none;stroke-width:0.72" />
  </g>
</svg>
