<?xml version="1.0" encoding="utf-8"?>
<!-- Generator: Adobe Illustrator 25.2.3, SVG Export Plug-In . SVG Version: 6.00 Build 0) -->
<svg version="1.1"
     id="svg2"
     xmlns:cc="http://creativecommons.org/ns#"
     xmlns:dc="http://purl.org/dc/elements/1.1/"
     xmlns:inkscape="http://www.inkscape.org/namespaces/inkscape"
     xmlns:rdf="http://www.w3.org/1999/02/22-rdf-syntax-ns#"
     xmlns:sodipodi="http://sodipodi.sourceforge.net/DTD/sodipodi-0.dtd"
     xmlns:svg="http://www.w3.org/2000/svg"
     xmlns="http://www.w3.org/2000/svg"
     xmlns:xlink="http://www.w3.org/1999/xlink"
     x="0px" y="0px"
     viewBox="0 0 72 72"
     style="enable-background:new 0 0 72 72;"
     xml:space="preserve">

<style type="text/css">
    .st0{fill:#80692D;}
    .st1{fill:#FFFFFF;}
</style>

<sodipodi:namedview
     bordercolor="#666666"
     borderopacity="1"
     gridtolerance="10"
     guidetolerance="10"
     id="namedview3177"
     inkscape:current-layer="layer1"
     inkscape:cx="36"
     inkscape:cy="33.609375"
     inkscape:pageopacity="0"
     inkscape:pageshadow="2"
     inkscape:window-height="968"
     inkscape:window-maximized="1"
     inkscape:window-width="1280"
     inkscape:window-x="-4"
     inkscape:window-y="-4"
     inkscape:zoom="3.5555556"
     objecttolerance="10"
     pagecolor="#ffffff"
     showgrid="false">
</sodipodi:namedview>

<g id="layer1">
    <g id="flowRoot2988"></g>

    <path id="rect3764" class="st0" d="M0,0h72v72H0V0z"/>

    <g id="flowRoot3766" transform="translate(-7.7333374,1.1003853)">
        <path id="path3068" class="st1" d="M46.7,48.2l0.1,4.8h23.3v-5.3H53.9c0.1-0.5,0.1-0.9,0.1-1.1c0.1-0.4,0.2-0.8,0.4-1.1
            c0.3-0.4,0.6-0.8,1-1.2c0.4-0.4,1-0.9,1.7-1.4l5.3-4c1.1-0.9,2.1-1.7,3.1-2.6c0.9-0.8,1.7-1.7,2.3-2.7c0.6-0.9,1-1.9,1.3-3.1
            c0.3-1.1,0.5-2.4,0.5-4c0-1.7-0.3-3.2-0.9-4.4c-0.6-1.3-1.5-2.4-2.6-3.3c-1.1-0.9-2.4-1.6-3.9-2c-1.5-0.4-3.2-0.7-5-0.7
            c-1.6,0-3.3,0.3-5.3,0.8c-2,0.5-3.8,1.3-5.4,2.3l2.1,4.5c0.4-0.3,1-0.5,1.6-0.7c0.5-0.2,1.2-0.5,2-0.8c0.7-0.2,1.4-0.4,2.2-0.6
            c0.9-0.2,1.7-0.2,2.3-0.2c0.8,0,1.6,0.1,2.3,0.3c0.8,0.2,1.4,0.5,2,1c0.5,0.4,1,1,1.3,1.8c0.4,0.8,0.5,1.7,0.5,2.7
            c0,0.8-0.1,1.6-0.3,2.2c-0.2,0.6-0.6,1.3-1,1.9c-0.4,0.6-0.9,1.1-1.6,1.7c-0.7,0.6-1.4,1.2-2.1,1.7L53.5,38
            c-2.3,1.7-4,3.4-5.1,5.1C47.3,44.7,46.7,46.4,46.7,48.2z"/>
        <path id="path4182" class="st1" d="M19.3,48h9.2V22.3L20,27.2l-2.3-4.5l11.9-6.5H35V48h7.4v5h-23L19.3,48L19.3,48z"/>
    </g>

    <!-- Voile blanc/gris semi-transparent -->
   

    <!-- Barre diagonale du coin haut droit au coin bas gauche -->
    <line
        x1="72"
        y1="0"
        x2="0"
        y2="72"
        stroke="#FFFFFF"
        stroke-opacity="0.79"
        stroke-width="9"
        stroke-linecap="square" />
	 <rect
        x="0"
        y="0"
        width="72"
        height="72"
        fill="#E6E6E6"
        opacity="0.6" />
</g>

</svg>
