<?xml version="1.0" encoding="UTF-8" standalone="no"?>
<!-- Created with Inkscape (http://www.inkscape.org/) -->

<svg
   xmlns:dc="http://purl.org/dc/elements/1.1/"
   xmlns:cc="http://creativecommons.org/ns#"
   xmlns:rdf="http://www.w3.org/1999/02/22-rdf-syntax-ns#"
   xmlns:svg="http://www.w3.org/2000/svg"
   xmlns="http://www.w3.org/2000/svg"
   xmlns:sodipodi="http://sodipodi.sourceforge.net/DTD/sodipodi-0.dtd"
   xmlns:inkscape="http://www.inkscape.org/namespaces/inkscape"
   width="200"
   height="200.00002"
   id="svg2484"
   sodipodi:version="0.32"
   inkscape:version="0.91 r13725"
   version="1.0"
   sodipodi:docname="Logo_train_transilien black.svg"
   inkscape:output_extension="org.inkscape.output.svg.inkscape">
  <defs
     id="defs2486" />
  <sodipodi:namedview
     id="base"
     pagecolor="#ffffff"
     bordercolor="#666666"
     borderopacity="1.0"
     inkscape:pageopacity="0.0"
     inkscape:pageshadow="2"
     inkscape:zoom="1.979899"
     inkscape:cx="17.153347"
     inkscape:cy="40.478002"
     inkscape:document-units="px"
     inkscape:current-layer="layer1"
     showgrid="false"
     inkscape:window-width="1280"
     inkscape:window-height="962"
     inkscape:window-x="-8"
     inkscape:window-y="-8"
     fit-margin-top="0"
     fit-margin-left="0"
     fit-margin-right="0"
     fit-margin-bottom="0"
     inkscape:window-maximized="1" />
  <metadata
     id="metadata2489">
    <rdf:RDF>
      <cc:Work
         rdf:about="">
        <dc:format>image/svg+xml</dc:format>
        <dc:type
           rdf:resource="http://purl.org/dc/dcmitype/StillImage" />
        <dc:title />
      </cc:Work>
    </rdf:RDF>
  </metadata>
  <g
     inkscape:label="Calque 1"
     inkscape:groupmode="layer"
     id="layer1"
     transform="translate(1122.1769,-821.42502)">
    <path
       style="opacity:1;fill:#000000;fill-opacity:0.66106645;stroke:#000000;stroke-width:0.01262691;stroke-miterlimit:4;stroke-dasharray:none;stroke-dashoffset:0;stroke-opacity:0.98324022"
       d=""
       id="path4238"
       inkscape:connector-curvature="0"
       transform="translate(-1125.2126,819.10359)" />
    <path
       style="opacity:1;fill:#000000;fill-opacity:0.66106645;stroke:#000000;stroke-width:0.01262691;stroke-miterlimit:4;stroke-dasharray:none;stroke-dashoffset:0;stroke-opacity:0.98324022"
       d=""
       id="path4240"
       inkscape:connector-curvature="0"
       transform="translate(-1125.2126,819.10359)" />
    <g
       id="g3402">
      <g
         id="g3381">
        <g
           id="g2840"
           transform="matrix(0.6451613,0,0,0.6451613,-792.46601,730.62487)"
           style="fill:#ffffff;stroke:#000000;stroke-opacity:1">
          <g
             style="fill:#ffffff;stroke:#000000;stroke-opacity:1"
             inkscape:label="Calque 1"
             id="g2639"
             transform="translate(-597.84164,-361.66719)">
            <g
               style="fill:#ffffff;stroke:#000000;stroke-opacity:1"
               id="g2628">
              <g
                 style="fill:#ffffff;stroke:#000000;stroke-opacity:1"
                 transform="matrix(1.0136364,0,0,1.0136364,-6.3061891,-6.3640296)"
                 id="g6673">
                <rect
                   style="opacity:1;fill:#ffffff;fill-opacity:1;fill-rule:nonzero;stroke:#000000;stroke-width:22.54545593;stroke-linejoin:miter;stroke-miterlimit:4;stroke-dasharray:none;stroke-dashoffset:0;stroke-opacity:1"
                   id="rect5674"
                   width="283.28412"
                   height="283.28415"
                   x="103.11621"
                   y="513.19971"
                   ry="41.278507" />
              </g>
            </g>
          </g>
        </g>
        <circle
           id="path4203"
           style="fill:#ffffff;stroke:none"
           cx="-1025.0588"
           cy="857.96222"
           r="4.2999997" />
        <circle
           id="path4205"
           style="fill:#ffffff;stroke:none"
           cx="-1048.1375"
           cy="920.69006"
           r="9" />
        <circle
           id="path4205-3"
           style="fill:#ffffff;stroke:none"
           cx="-999.57483"
           cy="921.24506"
           r="9" />
        <g
           id="g3373"
           transform="translate(0.35714285,0)">
          <path
             sodipodi:nodetypes="cssscccscccsssssssscccccsccccccssscccsscccssssssscc"
             style="fill:#000000;fill-opacity:1"
             d="m -1072.4935,985.83321 c 0.2664,-0.44355 4.9653,-7.43755 10.4421,-15.54222 5.4767,-8.10464 9.9936,-15.18632 10.0376,-15.73703 0.05,-0.62884 -0.9075,-1.33619 -2.5747,-1.90181 -3.8442,-1.30406 -7.6459,-4.85884 -9.7255,-9.09367 l -1.4347,-3.56677 -0.3788,-36.90046 c 0,-35.95697 0.03,-36.83871 1.3495,-39.67742 1.962,-4.22058 4.3652,-6.7749 8.1471,-8.65955 l 4.2673,-1.67835 28.0621,0.0153 c 20.3552,0 29.74644,0.226 31.52444,0.75871 3.20619,0.96058 7.89122,5.05522 9.74103,8.51342 1.42323,2.66071 1.42464,2.70129 1.42464,40.72787 0,38.02658 -10e-4,38.06716 -1.42464,40.72787 -1.83845,3.43703 -6.48536,7.51136 -9.82329,8.61297 -1.66478,0.54942 -2.62303,1.25651 -2.62303,1.93555 0,0.58845 4.64516,7.92606 10.32258,16.3058 5.67742,8.37977 10.32258,15.41151 10.32258,15.62616 0,0.21464 -2.51078,0.30639 -5.57942,0.20387 l -5.57949,-0.18639 -7.49658,-10.96774 -7.49662,-10.96777 -21.6014,-0.18019 c -11.8807,-0.099 -22.1893,-0.0374 -22.9079,0.13722 -0.8051,0.19555 -4.1479,4.53278 -8.7097,11.30061 l -7.4031,10.98323 -5.6832,0.009 c -4.3765,0.007 -5.5719,-0.17678 -5.1989,-0.79781 z m 27.9341,-56.91235 c 1.0046,-0.51955 2.618,-1.88516 3.5853,-3.03471 1.5583,-1.85187 1.8517,-2.4918 1.5929,-5.61335 -0.2517,-3.03516 -0.7378,-3.81581 -2.7239,-5.63594 -4.336,-3.97361 -9.9423,-3.26342 -13.2649,1.6802 -4.6677,6.94496 3.4506,16.4098 10.8106,12.6038 z m 48.8944,-0.13284 c 4.47807,-2.12496 6.19368,-7.08245 4.01129,-11.59071 -2.59277,-5.35587 -9.00159,-6.82961 -13.44399,-3.09154 -4.9266,4.14548 -3.7537,12.27593 2.1413,14.84264 2.6806,1.16716 4.58201,1.12536 7.2914,-0.16039 z m -0.47535,-30.37522 c 1.23484,-0.62039 2.90419,-2.11452 3.70967,-3.3202 1.34981,-2.02058 1.46446,-2.90509 1.46446,-11.30038 0,-10.8091 -0.66497,-12.73368 -5.20904,-15.07633 -2.85113,-1.46987 -2.89493,-1.4718 -28.45434,-1.29032 -24.7002,0.17542 -25.6613,0.22852 -27.3795,1.512 -4.0543,3.02865 -4.4243,4.12394 -4.6331,13.71452 -0.1776,8.15626 -0.08,9.04303 1.2903,11.68174 2.7352,5.26852 2.3766,5.20916 31.4724,5.208 22.9838,-6.5e-4 25.71491,-0.11207 27.73915,-1.12903 z"
             id="path2772"
             inkscape:connector-curvature="0" />
          <g
             transform="matrix(4.1498847,0,0,1.7943755,3226.866,-672.17369)"
             id="g4283">
            <rect
               style="opacity:1;fill:#000000;fill-opacity:1;stroke:#000000;stroke-width:0.1;stroke-miterlimit:4;stroke-dasharray:none;stroke-dashoffset:0;stroke-opacity:0.98324022"
               id="rect4230"
               width="0.63134533"
               height="3.9143412"
               x="-1024.386"
               y="846.4389"
               ry="0.31567267" />
            <rect
               style="opacity:1;fill:#000000;fill-opacity:1;stroke:#000000;stroke-width:0.1;stroke-miterlimit:4;stroke-dasharray:none;stroke-dashoffset:0;stroke-opacity:0.98324022"
               id="rect4246"
               width="11.09375"
               height="0.89285713"
               x="-1029.6769"
               y="845.71075"
               ry="0.31567299" />
            <rect
               style="opacity:1;fill:#000000;fill-opacity:1;stroke:#000000;stroke-width:0.1;stroke-miterlimit:4;stroke-dasharray:none;stroke-dashoffset:0;stroke-opacity:0.98324022"
               id="rect4248"
               width="0.73660713"
               height="1.9419643"
               x="-330.92151"
               y="1290.5022"
               ry="0.36830357"
               transform="matrix(0.80674753,0.59089629,-0.59089629,0.80674753,0,0)" />
            <rect
               style="opacity:1;fill:#000000;fill-opacity:1;stroke:#000000;stroke-width:0.1;stroke-miterlimit:4;stroke-dasharray:none;stroke-dashoffset:0;stroke-opacity:0.98324022"
               id="rect4248-4"
               width="0.73660713"
               height="1.9419643"
               x="-1321.0908"
               y="98.240265"
               ry="0.36830357"
               transform="matrix(0.81473732,-0.57983024,0.57983024,0.81473732,0,0)"
               inkscape:transform-center-x="0.40178572" />
          </g>
        </g>
        <ellipse
           style="opacity:1;fill:#ffffff;fill-opacity:1;stroke:#000000;stroke-width:0.09027964;stroke-miterlimit:4;stroke-dasharray:none;stroke-dashoffset:0;stroke-opacity:0.98324022"
           id="path3356"
           cx="-1047.1769"
           cy="921.42505"
           rx="9.9548597"
           ry="9.9548607" />
        <ellipse
           style="opacity:1;fill:#ffffff;fill-opacity:1;stroke:#000000;stroke-width:0.09027964;stroke-miterlimit:4;stroke-dasharray:none;stroke-dashoffset:0;stroke-opacity:0.98324022"
           id="path3356-2"
           cx="-1000.0746"
           cy="921.42505"
           rx="9.9548597"
           ry="9.9548607" />
      </g>
      <circle
         r="3.9285715"
         cy="859.81793"
         cx="-1022.7126"
         id="path3400"
         style="opacity:1;fill:#ffffff;fill-opacity:1;stroke:#000000;stroke-width:0.1;stroke-miterlimit:4;stroke-dasharray:none;stroke-dashoffset:0;stroke-opacity:0.98324022" />
    </g>
  </g>
</svg>
